<svg version="1.1" viewBox="0.0 0.0 100.0 100.0" fill="none" stroke="none" stroke-linecap="square" stroke-miterlimit="10" xmlns:xlink="http://www.w3.org/1999/xlink" xmlns="http://www.w3.org/2000/svg"><clipPath id="p.0"><path d="m0 0l100.0 0l0 100.0l-100.0 0l0 -100.0z" clip-rule="nonzero"/></clipPath><g clip-path="url(#p.0)"><path fill="#000000" fill-opacity="0.0" d="m0 0l100.0 0l0 100.0l-100.0 0z" fill-rule="evenodd"/><path fill="#4a86e8" d="m2.456693 50.0l0 0c0 -26.257444 21.285862 -47.54331 47.54331 -47.54331l0 0c12.609268 0 24.702095 5.009012 33.618195 13.925113c8.9161 8.9161 13.92511 21.008926 13.92511 33.618195l0 0c0 26.257446 -21.285858 47.543304 -47.543304 47.543304l0 0c-26.257444 0 -47.54331 -21.285858 -47.54331 -47.543304z" fill-rule="evenodd"/><path fill="#000000" fill-opacity="0.0" d="m6.4251966 11.212599l91.11811 0l0 77.5748l-91.11811 0z" fill-rule="evenodd"/><path fill="#ffffff" d="m35.675198 66.77697q-5.75 0 -9.890625 -2.140625q-4.125 -2.140625 -6.3125 -6.171875q-2.171875 -4.03125 -2.171875 -9.6875q0 -5.671875 2.171875 -9.703125q2.1875 -4.03125 6.3125 -6.15625q4.140625 -2.140623 9.890625 -2.140623q6.578125 0 11.671875 2.828123l-1.53125 5.859375q-4.953125 -2.78125 -9.84375 -2.78125q-3.65625 0 -6.296875 1.4375q-2.640625 1.4375 -4.03125 4.15625q-1.390625 2.703125 -1.390625 6.5q0 3.734375 1.390625 6.484375q1.390625 2.734375 4.03125 4.171875q2.640625 1.4375 6.296875 1.4375q4.796875 0 9.84375 -2.78125l1.53125 5.84375q-5.09375 2.84375 -11.671875 2.84375zm18.440567 -0.484375l1.484375 -8.25l-4.171875 0l0 -5.4375l5.140625 0l1.53125 -8.625l-4.125 0l0 -5.4375l5.078125 0l1.25 -7.296873l6.140621 0l-1.296875 7.296873l5.09375 0l1.296875 -7.296873l6.09375 0l-1.296875 7.296873l4.171875 0l0 5.4375l-5.125 0l-1.484375 8.625l4.078125 0l0 5.4375l-5.09375 0l-1.4375 8.25l-6.09375 0l1.4375 -8.25l-5.140621 0l-1.390625 8.25l-6.140625 0zm8.015625 -11.90625l-1.15625 -1.625l8.406246 0l-1.6875 1.625l2.15625 -12.1875l1.109375 1.625l-8.390621 0l1.7187462 -1.625l-2.1562462 12.1875z" fill-rule="nonzero"/></g></svg>